REM DIRINDEX 1\3,1\2\4,1\2\5,1\2\6
REM DIRNAME folder01,folder02,folder03,folder04,folder05,folder06
TITLE ""
FILE "009.mp3" MP3
  TRACK 01 AUDIO
    TITLE "4:cjc137_0339"
    INDEX 01 00:00:00
  TRACK 02 AUDIO
    TITLE "0:"
    INDEX 01 00:01:19
  TRACK 03 AUDIO
    TITLE "6:cjc137_0340"
    INDEX 01 00:01:30
  TRACK 04 AUDIO
    TITLE "0:"
    INDEX 01 00:02:57
  TRACK 05 AUDIO
    TITLE "5:cjc137_0341"
    INDEX 01 00:02:69
  TRACK 06 AUDIO
    TITLE "0:"
    INDEX 01 00:04:13
  TRACK 07 AUDIO
    TITLE "4:cjc137_0342"
    INDEX 01 00:05:20
  TRACK 08 AUDIO
    TITLE "0:"
    INDEX 01 00:06:26
  TRACK 09 AUDIO
    TITLE "6:cjc137_0343"
    INDEX 01 00:06:37
  TRACK 10 AUDIO
    TITLE "0:"
    INDEX 01 00:07:27
  TRACK 11 AUDIO
    TITLE "5:cjc137_0344"
    INDEX 01 00:07:39
  TRACK 12 AUDIO
    TITLE "0:"
    INDEX 01 00:08:46
  TRACK 13 AUDIO
    TITLE "4:cjc137_0345"
    INDEX 01 00:09:51
  TRACK 14 AUDIO
    TITLE "0:"
    INDEX 01 00:10:59
  TRACK 15 AUDIO
    TITLE "6:cjc137_0346"
    INDEX 01 00:10:72
  TRACK 16 AUDIO
    TITLE "0:"
    INDEX 01 00:12:18
  TRACK 17 AUDIO
    TITLE "5:cjc137_0347"
    INDEX 01 00:12:28
  TRACK 18 AUDIO
    TITLE "0:"
    INDEX 01 00:13:39
  TRACK 19 AUDIO
    TITLE "4:cjc137_0348"
    INDEX 01 00:14:47
  TRACK 20 AUDIO
    TITLE "0:"
    INDEX 01 00:15:46
  TRACK 21 AUDIO
    TITLE "6:cjc137_0349"
    INDEX 01 00:15:60
  TRACK 22 AUDIO
    TITLE "0:"
    INDEX 01 00:16:49
  TRACK 23 AUDIO
    TITLE "5:cjc137_0350"
    INDEX 01 00:16:59
  TRACK 24 AUDIO
    TITLE "0:"
    INDEX 01 00:17:61
  TRACK 25 AUDIO
    TITLE "4:cjc137_0351"
    INDEX 01 00:18:70
  TRACK 26 AUDIO
    TITLE "0:"
    INDEX 01 00:20:04
  TRACK 27 AUDIO
    TITLE "6:cjc137_0352"
    INDEX 01 00:20:14
  TRACK 28 AUDIO
    TITLE "0:"
    INDEX 01 00:21:09
  TRACK 29 AUDIO
    TITLE "5:cjc137_0353"
    INDEX 01 00:21:19
  TRACK 30 AUDIO
    TITLE "0:"
    INDEX 01 00:22:27
  TRACK 31 AUDIO
    TITLE "4:cjc137_0354"
    INDEX 01 00:23:34
  TRACK 32 AUDIO
    TITLE "0:"
    INDEX 01 00:24:59
  TRACK 33 AUDIO
    TITLE "6:cjc137_0355"
    INDEX 01 00:24:69
  TRACK 34 AUDIO
    TITLE "0:"
    INDEX 01 00:26:03
  TRACK 35 AUDIO
    TITLE "5:cjc137_0356"
    INDEX 01 00:26:13
  TRACK 36 AUDIO
    TITLE "0:"
    INDEX 01 00:27:36
  TRACK 37 AUDIO
    TITLE "4:cjc137_0357"
    INDEX 01 00:28:45
  TRACK 38 AUDIO
    TITLE "0:"
    INDEX 01 00:29:52
  TRACK 39 AUDIO
    TITLE "6:cjc137_0358"
    INDEX 01 00:29:62
  TRACK 40 AUDIO
    TITLE "0:"
    INDEX 01 00:31:10
  TRACK 41 AUDIO
    TITLE "5:cjc137_0359"
    INDEX 01 00:31:22
  TRACK 42 AUDIO
    TITLE "0:"
    INDEX 01 00:32:29
  TRACK 43 AUDIO
    TITLE "4:cjc137_0360"
    INDEX 01 00:33:36
  TRACK 44 AUDIO
    TITLE "0:"
    INDEX 01 00:34:42
  TRACK 45 AUDIO
    TITLE "6:cjc137_0361"
    INDEX 01 00:34:53
  TRACK 46 AUDIO
    TITLE "0:"
    INDEX 01 00:35:37
  TRACK 47 AUDIO
    TITLE "5:cjc137_0362"
    INDEX 01 00:35:47
  TRACK 48 AUDIO
    TITLE "0:"
    INDEX 01 00:36:54
  TRACK 49 AUDIO
    TITLE "4:cjc137_0363"
    INDEX 01 00:37:59
  TRACK 50 AUDIO
    TITLE "0:"
    INDEX 01 00:39:09
  TRACK 51 AUDIO
    TITLE "6:cjc137_0364"
    INDEX 01 00:39:21
  TRACK 52 AUDIO
    TITLE "0:"
    INDEX 01 00:40:24
  TRACK 53 AUDIO
    TITLE "5:cjc137_0365"
    INDEX 01 00:40:34
  TRACK 54 AUDIO
    TITLE "0:"
    INDEX 01 00:41:59
  TRACK 55 AUDIO
    TITLE "4:cjc137_0366"
    INDEX 01 00:42:66
  TRACK 56 AUDIO
    TITLE "0:"
    INDEX 01 00:43:72
  TRACK 57 AUDIO
    TITLE "6:cjc137_0367"
    INDEX 01 00:44:11
  TRACK 58 AUDIO
    TITLE "0:"
    INDEX 01 00:45:12
  TRACK 59 AUDIO
    TITLE "5:cjc137_0368"
    INDEX 01 00:45:22
  TRACK 60 AUDIO
    TITLE "0:"
    INDEX 01 00:46:27
  TRACK 61 AUDIO
    TITLE "4:cjc137_0369"
    INDEX 01 00:47:36
  TRACK 62 AUDIO
    TITLE "0:"
    INDEX 01 00:48:49
  TRACK 63 AUDIO
    TITLE "6:cjc137_0370"
    INDEX 01 00:48:61
  TRACK 64 AUDIO
    TITLE "0:"
    INDEX 01 00:50:56
  TRACK 65 AUDIO
    TITLE "5:cjc137_0371"
    INDEX 01 00:50:68
  TRACK 66 AUDIO
    TITLE "0:"
    INDEX 01 00:52:06
  TRACK 67 AUDIO
    TITLE "4:cjc137_0372"
    INDEX 01 00:53:13
  TRACK 68 AUDIO
    TITLE "0:"
    INDEX 01 00:54:21
  TRACK 69 AUDIO
    TITLE "6:cjc137_0373"
    INDEX 01 00:54:36
  TRACK 70 AUDIO
    TITLE "0:"
    INDEX 01 00:55:59
  TRACK 71 AUDIO
    TITLE "5:cjc137_0374"
    INDEX 01 00:55:71
  TRACK 72 AUDIO
    TITLE "0:"
    INDEX 01 00:57:05
  TRACK 73 AUDIO
    TITLE "4:cjc137_0375"
    INDEX 01 00:58:15
  TRACK 74 AUDIO
    TITLE "0:"
    INDEX 01 00:59:26
  TRACK 75 AUDIO
    TITLE "6:cjc137_0376"
    INDEX 01 00:59:41
  TRACK 76 AUDIO
    TITLE "0:"
    INDEX 01 01:00:55
  TRACK 77 AUDIO
    TITLE "5:cjc137_0377"
    INDEX 01 01:00:66
  TRACK 78 AUDIO
    TITLE "0:"
    INDEX 01 01:02:05
  TRACK 79 AUDIO
    TITLE "4:cjc137_0378"
    INDEX 01 01:03:14
  TRACK 80 AUDIO
    TITLE "0:"
    INDEX 01 01:04:19
  TRACK 81 AUDIO
    TITLE "6:cjc137_0379"
    INDEX 01 01:04:33
  TRACK 82 AUDIO
    TITLE "0:"
    INDEX 01 01:05:52
  TRACK 83 AUDIO
    TITLE "5:cjc137_0380"
    INDEX 01 01:05:66
  TRACK 84 AUDIO
    TITLE "0:"
    INDEX 01 01:06:69
